<svg xmlns="http://www.w3.org/2000/svg" xmlns:xlink="http://www.w3.org/1999/xlink" viewBox="0 0 400 250"><defs><radialGradient id="radial-gradient" cx="343.52" cy="127.56" r="364.52" gradientUnits="userSpaceOnUse"><stop offset="0" stop-color="#1450a0"/><stop offset=".07" stop-color="#13488f"/><stop offset=".26" stop-color="#10356a"/><stop offset=".45" stop-color="#0d274d"/><stop offset=".64" stop-color="#0b1c39"/><stop offset=".82" stop-color="#0a162c"/><stop offset="1" stop-color="#0a1428"/></radialGradient><radialGradient id="radial-gradient-2" cx="1312.4" cy="-695.57" r="20.57" gradientTransform="matrix(1 .03 .03 -1 -1035.44 -585.75)" gradientUnits="userSpaceOnUse"><stop offset=".25" stop-color="#0058de"/><stop offset=".27" stop-color="#0051cc"/><stop offset=".34" stop-color="#003e9c"/><stop offset=".42" stop-color="#002d72"/><stop offset=".49" stop-color="#001f4f"/><stop offset=".57" stop-color="#001432"/><stop offset=".66" stop-color="#000b1c"/><stop offset=".75" stop-color="#00050c"/><stop offset=".85" stop-color="#000103"/><stop offset="1"/></radialGradient><radialGradient xlink:href="#radial-gradient-2" id="radial-gradient-3" cx="1347.3" cy="-619.64" r="22.85"/><radialGradient xlink:href="#radial-gradient-2" id="radial-gradient-4" cx="1427.6" cy="-582.75" r="20.79" gradientTransform="matrix(.03 -1 -1 -.03 -246.12 1441.28)"/><radialGradient xlink:href="#radial-gradient-2" id="radial-gradient-5" cx="1451.83" cy="-608.93" r="21.7"/><radialGradient xlink:href="#radial-gradient-2" id="radial-gradient-6" cx="1559.91" cy="-624.14" r="19.86"/><radialGradient xlink:href="#radial-gradient-2" id="radial-gradient-7" cx="1403.45" cy="-630.12" r="21.8"/><radialGradient xlink:href="#radial-gradient-2" id="radial-gradient-8" cx="1441.74" cy="-703.31" r="22.14"/><radialGradient xlink:href="#radial-gradient-2" id="radial-gradient-9" cx="1436.97" cy="-747.2" r="21.76" gradientTransform="scale(1 -1) rotate(-47 1525.37 740.37)"/><radialGradient xlink:href="#radial-gradient-2" id="radial-gradient-10" cx="1472.75" cy="-732.05" r="23.66" gradientTransform="matrix(-1 -.03 -.03 1 1886.64 971.49)"/><radialGradient xlink:href="#radial-gradient-2" id="radial-gradient-11" cx="1542.6" cy="-696.73" r="25.93"/><radialGradient xlink:href="#radial-gradient-2" id="radial-gradient-12" cx="1650.4" cy="-667.25" r="25.02"/><radialGradient xlink:href="#radial-gradient-2" id="radial-gradient-13" cx="1629.27" cy="-737.5" r="21.98"/><radialGradient xlink:href="#radial-gradient-2" id="radial-gradient-14" cx="1683.32" cy="-755.26" r="20.75"/><radialGradient xlink:href="#radial-gradient-2" id="radial-gradient-15" cx="1729.03" cy="-703.93" r="20.82"/><radialGradient xlink:href="#radial-gradient-2" id="radial-gradient-16" cx="1459.17" cy="-662.81" r="19.63"/><clipPath id="clip-path"><path fill="none" d="M0 0h453.54v255.12H0z"/></clipPath><style>.cls-24{fill:#fff}</style></defs><g style="isolation:isolate"><g id="Ñëîé_1" clip-path="url(#clip-path)" data-name="Ñëîé 1"><path fill="url(#radial-gradient)" d="M0 0h453.54v255.12H0z"/><g style="mix-blend-mode:screen"><path fill="url(#radial-gradient-2)" d="M254.63 131a20.58 20.58 0 1 0 19.9 21.22 20.61 20.61 0 0 0-19.9-21.22Z"/><path fill="url(#radial-gradient-3)" d="M292 54a22.85 22.85 0 1 0 22.1 23.56A22.86 22.86 0 0 0 292 54Z"/><path fill="url(#radial-gradient-4)" d="M361.38 32.44a20.8 20.8 0 1 0 21.45-20.12 20.82 20.82 0 0 0-21.45 20.12Z"/><path fill="url(#radial-gradient-5)" d="M396.81 47.8a21.69 21.69 0 1 0 21 22.38 21.71 21.71 0 0 0-21-22.38Z"/><path fill="url(#radial-gradient-6)" d="M504.29 68.3a19.86 19.86 0 1 0 19.21 20.49 19.89 19.89 0 0 0-19.21-20.49Z"/><path fill="url(#radial-gradient-7)" d="M347.78 67.32a21.8 21.8 0 1 0 21.08 22.48 21.82 21.82 0 0 0-21.08-22.48Z"/><path fill="url(#radial-gradient-8)" d="M383.71 141.35a22.15 22.15 0 1 0 21.42 22.85 22.17 22.17 0 0 0-21.42-22.85Z"/><path fill="url(#radial-gradient-9)" d="M398 195.7a21.76 21.76 0 1 0-1 30.76 21.78 21.78 0 0 0 1-30.76Z"/><path fill="url(#radial-gradient-10)" d="M437.36 216.18a23.66 23.66 0 1 0-22.89-24.41 23.7 23.7 0 0 0 22.89 24.41Z"/><path fill="url(#radial-gradient-11)" d="M484.86 134.23A25.93 25.93 0 1 0 509.94 161a26 26 0 0 0-25.08-26.77Z"/><path fill="url(#radial-gradient-12)" d="M593.52 109.14A25 25 0 1 0 617.73 135a25.06 25.06 0 0 0-24.21-25.86Z"/><path fill="url(#radial-gradient-13)" d="M570 181.71a22 22 0 1 0 21.27 22.68A22 22 0 0 0 570 181.71Z"/><path fill="url(#radial-gradient-14)" d="M623.45 202.42a20.76 20.76 0 1 0 20.08 21.41 20.79 20.79 0 0 0-20.08-21.41Z"/><path fill="url(#radial-gradient-15)" d="M670.79 152.52A20.83 20.83 0 1 0 690.94 174a20.84 20.84 0 0 0-20.15-21.48Z"/><path fill="url(#radial-gradient-16)" d="M402.35 104a19.63 19.63 0 1 0 19 20.25 19.65 19.65 0 0 0-19-20.25Z"/></g><g style="mix-blend-mode:overlay"><g opacity=".15"><path d="M375.57 226.2a2.43 2.43 0 0 0-3.65 1.76l-11.22-1.07a3.4 3.4 0 0 0-1.68-3.14 3.1 3.1 0 0 0-1-.39l2.16-12.18a2.9 2.9 0 0 0 3.27-3v-.24a2.94 2.94 0 0 0-1.41-2.1 2.9 2.9 0 0 0-3.22.21l-.18.15a3.09 3.09 0 0 0-.55.69 2.89 2.89 0 0 0 1 3.95 3 3 0 0 0 .83.32l-2.17 12.19a3.36 3.36 0 0 0-2.82.92l-.17.18a3.07 3.07 0 0 0-.43.56 3.43 3.43 0 0 0-.19 3l-5 2.28a2.29 2.29 0 0 0-.88-.92 2.3 2.3 0 1 0 1 1.14l4.94-2.28a3.41 3.41 0 0 0 4.36 1.61l.22-.1a3.44 3.44 0 0 0 1.4-1.33 3.39 3.39 0 0 0 .44-1.26l11.21 1.07a2.45 2.45 0 0 0 4.57 1.34 2.43 2.43 0 0 0-.83-3.36Zm-175.16-92.05a3.14 3.14 0 0 0 3.84 2.24 3.44 3.44 0 0 0 1.07-.52L214.5 147a4.37 4.37 0 0 0-1.32 4.38 4.14 4.14 0 0 0 .55 1.25l-13 9.07a3.68 3.68 0 0 0-5.69-.23l-.21.24a3.7 3.7 0 0 0 2.48 5.9h.31a3.86 3.86 0 0 0 1.11-.12 3.69 3.69 0 0 0 2.63-4.52 3.9 3.9 0 0 0-.45-1l13-9.07a4.38 4.38 0 0 0 3.38 1.73h.32a4.67 4.67 0 0 0 .89-.13 4.33 4.33 0 0 0 2.91-2.56l6.54 2.42a3 3 0 0 0 0 1.63 3 3 0 1 0 .14-1.93l-6.54-2.41a4.37 4.37 0 0 0-2.5-5.4l-.29-.11a4.19 4.19 0 0 0-2.46-.06 4.24 4.24 0 0 0-1.54.74l-9.18-11.11a3.14 3.14 0 0 0-2.92-5.36 3.12 3.12 0 0 0-2.25 3.8ZM363 24.94a2.85 2.85 0 0 0 1.33 0l2.1 7a4.54 4.54 0 0 0-3 3.26 4.43 4.43 0 0 0-.05 1.81l.06.29a4.5 4.5 0 0 0 2.14 2.85l-1.64 3a.92.92 0 0 0-.23-.09 1.54 1.54 0 1 0-.71 3 1.54 1.54 0 0 0 1.19-2.78l1.64-3a4.48 4.48 0 0 0 .95.34 4.42 4.42 0 0 0 3.09-.37l.26-.14a4.61 4.61 0 0 0 1.67-1.75l7.46 3.68a3.29 3.29 0 0 0-.21.6 3.43 3.43 0 0 0 5.91 3.07l.09-.11a3.42 3.42 0 0 0 .67-1.38 3.34 3.34 0 0 0-.42-2.58l-.07-.12a3.43 3.43 0 0 0-5.84.26l-7.46-3.68a4.53 4.53 0 0 0-.26-4.21l-.15-.23a4.52 4.52 0 0 0-2.66-1.82 4.63 4.63 0 0 0-2.16 0l-2.1-7.07a2.86 2.86 0 1 0-3.73-3.35 2.86 2.86 0 0 0 2.13 3.52Zm-43.43 33.13a2.18 2.18 0 0 0-.94 1.28l-11.08-2.2a3.88 3.88 0 0 0-.39-2.42l1.7-.92a1.17 1.17 0 1 0 2-1.23 1.16 1.16 0 0 0-2 1.11l-1.71.92-.07-.15a3.88 3.88 0 0 0-3-1.82h-.24a3.88 3.88 0 0 0-2.14.58 2 2 0 0 0-.35.25l-4.82-5.79a2.16 2.16 0 1 0-.34.27l.16-.11 4.81 5.77a4 4 0 0 0-1.23 2.22v.24a3.85 3.85 0 0 0 .55 2.49 3.81 3.81 0 0 0 2.7 1.78l-1 8a1.93 1.93 0 0 0-1.16.28 2 2 0 1 0 1.4-.26l1-8a4 4 0 0 0 2.4-.56 3.86 3.86 0 0 0 1.73-2.43l11.08 2.21a2.14 2.14 0 1 0 1-1.52Zm85.01 139.26a4.21 4.21 0 0 0-.45-3l18-12.06A7.45 7.45 0 0 0 426 185l-1.06 3.54a2.25 2.25 0 0 0-1 4.39 2.24 2.24 0 0 0 1.26-4.3l1.08-3.56a2.64 2.64 0 0 0 .3.1 7.42 7.42 0 0 0 6.48-1.54l.36-.31a7.43 7.43 0 0 0 2.12-3.69 4.63 4.63 0 0 0 .14-.8l14.4 1.31a4.27 4.27 0 1 0 .12-.82c0 .12-.05.24-.07.35l-14.4-1.3a7.46 7.46 0 0 0-1.33-4.69l-.27-.39a7.42 7.42 0 0 0-10.22-1.37l-9.51-12.25a3.88 3.88 0 1 0-.37.28l9.5 12.24a7.53 7.53 0 0 0-2.49 4 7.45 7.45 0 0 0 .94 5.65l-18.05 12a4.12 4.12 0 1 0 .72 3.42Z"/><path d="M444.14 85.44a4.37 4.37 0 0 0-5.45 5.08l-10.88 2.78a6.89 6.89 0 0 0-7.55-5l-3.21-19.22a4.09 4.09 0 1 0-.43.08l3.2 19.22a6.94 6.94 0 0 0-4.47 3.09l-4.48-2.66a2.35 2.35 0 1 0-4.38-1.63 2.34 2.34 0 0 0 4.16 2l4.49 2.67a6.91 6.91 0 0 0-.58 1.43 6.81 6.81 0 0 0 .39 4.74l-24.62 12a3.7 3.7 0 0 0-.21-.33 4.17 4.17 0 0 0-2.92-1.66l1.7-17.18a2.75 2.75 0 0 0 2.34-4.39 2.73 2.73 0 0 0-2.94-1h-.12a3.71 3.71 0 0 0-.79.41 2.76 2.76 0 0 0-.55 3.85 2.71 2.71 0 0 0 1.81 1.07L387 108a4.24 4.24 0 0 0-2.67.8L370 89.64a2.82 2.82 0 0 0-3.47-4.44 2.84 2.84 0 0 0-1.12 2.54v.12a2.88 2.88 0 0 0 .53 1.3 2.84 2.84 0 0 0 3.84.64l14.3 19.2a4.18 4.18 0 0 0-1.51 2.79v.14a4.12 4.12 0 0 0 .27 1.79l-39.33 19.08a7.85 7.85 0 0 0-2.4-2.85l14.95-21.86a2.66 2.66 0 0 0 .71.3 3 3 0 1 0-1.08-.55l-14.93 21.86a7.66 7.66 0 0 0-5.76-1.1l-8.33-38a4.86 4.86 0 0 0 2.4-7.89l13.64-12.49A3 3 0 0 0 344 71a2.94 2.94 0 0 0 2.13-.22l3.35 5.91a2.09 2.09 0 1 0 1.69-.26 2.22 2.22 0 0 0-1.51.15l-3.34-5.92a2.9 2.9 0 0 0 1.29-1.7 2.86 2.86 0 0 0 .08-1.16v-.21a2.93 2.93 0 0 0-5.7-.21 2.9 2.9 0 0 0 .58 2.69l-13.65 12.49a4.86 4.86 0 1 0-4.82 8 4.73 4.73 0 0 0 2.14.11l8.33 38a7.77 7.77 0 0 0-5.59 5.47l-38.36-10.65a7.18 7.18 0 0 0-2.06-7.22l7.92-9.51a4.74 4.74 0 0 0 1.68.84 5 5 0 1 0-2-1.12l-7.93 9.52a7.19 7.19 0 0 0-8.43-.46L257 82a7 7 0 0 0 1.67-9.49l11.76-8.44a3.62 3.62 0 1 0-.25-.36l-11.76 8.44a7 7 0 0 0-9-1.81l-.37.23a7 7 0 0 0-2.74 3.43L243 72.91a2.26 2.26 0 1 0-.09.22l3.28 1.13c0 .1-.07.19-.1.29a7 7 0 0 0 1.2 6.11l.28.34a7 7 0 0 0 3.43 2.08 6.08 6.08 0 0 0 .74.16L250 96.63a4 4 0 1 0 .76.14l-.33-.08 1.74-13.4a6.91 6.91 0 0 0 4.42-1.06l22.87 33.54a7.18 7.18 0 0 0-1.9 9.57L252.49 141a4.6 4.6 0 0 0-2.61-1.84 4.69 4.69 0 0 0-4.07 8.27l.18.14a4.92 4.92 0 0 0 1.37.64 4.7 4.7 0 0 0 5.36-6.83l25.06-15.66a7.16 7.16 0 0 0 3.86 2.79l-11 39.42a4.82 4.82 0 1 0 2.21 8.2l7.31 7.42a1.92 1.92 0 0 0-.47.85 2.11 2.11 0 0 0 1.46 2.6 2.14 2.14 0 0 0 2.6-1.47 2.11 2.11 0 0 0-1.48-2.59 2 2 0 0 0-2 .46L273 176a4.81 4.81 0 0 0-2-7.93l11-39.44a7.18 7.18 0 0 0 5.37-.86l2.41 3.83a2.08 2.08 0 1 0 1.77-.33 2.08 2.08 0 0 0-1.59.2l-2.41-3.82a7.2 7.2 0 0 0 2.88-3.67l38.39 10.66a7.79 7.79 0 0 0 2.45 7.49l-7.11 8.4a5.72 5.72 0 0 0-8.45 7.42l-13 8.07a2 2 0 0 0-1.1-.79 2 2 0 1 0 1.39 2.48 2 2 0 0 0-.17-1.51l13-8.07a5.69 5.69 0 0 0 8 1.65l5.38 7.69a1.9 1.9 0 0 0-.67 1 1.94 1.94 0 1 0 2.38-1.34 1.85 1.85 0 0 0-1.53.22l-5.38-7.7a5.71 5.71 0 0 0 .49-8.84l7.11-8.39a7.82 7.82 0 0 0 10.39-.64l25.68 23.51a4.09 4.09 0 0 0-.85 1.61 4.33 4.33 0 1 0 1.13-1.93l-25.67-23.5a7.83 7.83 0 0 0 1.69-3.09 7.71 7.71 0 0 0-.35-5.14L383 114.09c.08.15.15.3.24.44l.15.22a4.24 4.24 0 0 0 4.08 1.62l1.58 7.05a3.07 3.07 0 0 0-1 .48 2.91 2.91 0 1 0 1.24-.53l-1.56-7a4.27 4.27 0 0 0 1.56-.73 4.14 4.14 0 0 0 1.66-3v-.25a4.18 4.18 0 0 0-.41-1.92l24.6-12a6.87 6.87 0 0 0 2.58 2.66l-6.06 11.15a4.73 4.73 0 0 0-.91-.34 5.23 5.23 0 0 0-5 8.81l-14.24 15.45a1.8 1.8 0 0 0-.75-.39 2 2 0 0 0-1.08 3.9 2 2 0 0 0 2-3.36l14.24-15.46a5.24 5.24 0 0 0 6 .63l5.94 10a2.71 2.71 0 0 0 .75 4.91 2.72 2.72 0 0 0 1.46-5.25 2.68 2.68 0 0 0-2 .23l-5.95-10a5.2 5.2 0 0 0-.06-8.9l6.07-11.16a5.58 5.58 0 0 0 1.24.47 6.81 6.81 0 0 0 5.18-.61l.37-.22a6.82 6.82 0 0 0 2.9-3.99 6.93 6.93 0 0 0 .09-3.29l10.89-2.78a4.36 4.36 0 1 0 5.34-5.5Z"/><path d="M350.15 193.3a1.51 1.51 0 0 0-.54-2.05 1.49 1.49 0 0 0-2 .54c0 .05 0 .1-.06.15l-2.81-1.11a3.08 3.08 0 0 0-1.33-3.7 3 3 0 0 0-2.45-.28L339 181a2.06 2.06 0 0 0 1-.88 2 2 0 1 0-2.78.73 2.08 2.08 0 0 0 1.61.19l1.94 5.81a3 3 0 0 0-1.61 1.34 3.07 3.07 0 0 0 .4 3.64l-11.83 12.06a5.86 5.86 0 0 0-5.68-1.4l-.28.09a5.91 5.91 0 0 0-2.82 2l-2.57-1.91a.24.24 0 0 0 .06-.09 2.23 2.23 0 1 0-3.05.79 2.24 2.24 0 0 0 2.82-.47l2.56 1.92c-.1.13-.19.28-.28.42a5.88 5.88 0 0 0-.75 3.93l-18.45 3.27a3.44 3.44 0 0 0-1.6-2.2 3.4 3.4 0 1 0 1.21 4.65 3.35 3.35 0 0 0 .43-2.17l18.46-3.25a5.94 5.94 0 0 0 2.83 4 5.84 5.84 0 0 0 1.5.61l-3.07 12.86a4.48 4.48 0 1 0 1.38.52 4.52 4.52 0 0 0-1.1-.46l3.07-12.85a5.94 5.94 0 0 0 3-.15l.27-.09a6 6 0 0 0 3.11-2.57 6.18 6.18 0 0 0 .68-1.68l.05-.3a6 6 0 0 0-1.59-5.21l11.83-12.06a3 3 0 0 0 .49.36 3.07 3.07 0 0 0 4.2-1.1 2.92 2.92 0 0 0 .17-.36l2.81 1.1a1.49 1.49 0 0 0 2.7 1.23Zm110.12-76.92a2 2 0 1 0 1 3.94c.08 0 .13-.06.21-.08l1.63 3.78a4.2 4.2 0 0 0-2.28 4.86 4.1 4.1 0 0 0 2.09 2.63l-3.73 7.5a2.83 2.83 0 0 0-1.85-.16 2.79 2.79 0 1 0 2 .25l3.74-7.49a4.11 4.11 0 0 0 2.84.26 4.22 4.22 0 0 0 3.14-3.9l23.07-.22a8 8 0 0 0 .26 1.79 8.21 8.21 0 0 0 3.88 5.05l.36.18a8.13 8.13 0 0 0 4.63.82l.64 4.32h-.14a3.09 3.09 0 1 0 .53-.08l-.62-4.33c.23 0 .46-.08.68-.13a8.16 8.16 0 0 0 4.52-3.08l21 14.67a4.63 4.63 0 1 0 .23-.33l-21-14.68a8.1 8.1 0 0 0 1.1-6.56 8.37 8.37 0 0 0-.85-2l15.38-9.45a6.12 6.12 0 1 0-.83-1.84 6.66 6.66 0 0 0 .62 1.5l-15.34 9.4a8.3 8.3 0 0 0-3.06-2.77l-.36-.18a8.18 8.18 0 0 0-7.76.46l-.33.23a8.21 8.21 0 0 0-3.5 6.57l-23.08.22a3.8 3.8 0 0 0-.13-.81 4.18 4.18 0 0 0-5.11-3 4 4 0 0 0-.52.18l-1.65-3.77a2 2 0 0 0-1.41-3.79Z"/></g><g opacity=".3"><path d="M361.88 28.93a2.46 2.46 0 0 0 3.36-.89 2.42 2.42 0 0 0 .3-.88l11.21 1.07a3.41 3.41 0 0 0 1.69 3.14 3 3 0 0 0 1 .39L377.27 44a2.89 2.89 0 0 0-3.27 3v.24a2.89 2.89 0 0 0 4.62 1.89l.19-.15a2.75 2.75 0 0 0 .54-.68 2.89 2.89 0 0 0-1-4 2.85 2.85 0 0 0-.82-.32l2.16-12.19a3.37 3.37 0 0 0 2.83-.92l.17-.17a3.5 3.5 0 0 0 .42-.57 3.37 3.37 0 0 0 .19-3l4.95-2.27a2.36 2.36 0 0 0 .89.91 2.32 2.32 0 0 0 3.17-.83 2.32 2.32 0 1 0-4.16-.31l-4.95 2.27a3.42 3.42 0 0 0-1.34-1.41 3.35 3.35 0 0 0-3-.19l-.21.1a3.29 3.29 0 0 0-1.4 1.32 3.23 3.23 0 0 0-.44 1.26l-11.21-1.07a2.49 2.49 0 0 0-1.22-2.24 2.46 2.46 0 0 0-2.47 4.26ZM537.05 121a3.14 3.14 0 0 0-3.84-2.24 3.25 3.25 0 0 0-1.07.53L523 108.14a4.37 4.37 0 0 0 .77-5.63l13-9.07a3.69 3.69 0 0 0 3.88 1.34 3.75 3.75 0 0 0 1.81-1.11l.2-.24a3.7 3.7 0 0 0-2.47-5.9h-.31a3.82 3.82 0 0 0-1.11.12 3.69 3.69 0 0 0-2.63 4.52 3.35 3.35 0 0 0 .45 1l-13 9.08a4.36 4.36 0 0 0-3.39-1.74h-.32a4.67 4.67 0 0 0-.89.13 4.36 4.36 0 0 0-2.9 2.56l-6.55-2.42a2.91 2.91 0 0 0 0-1.63 3 3 0 1 0-2.1 3.62 2.93 2.93 0 0 0 1.95-1.69l6.55 2.42a4.34 4.34 0 0 0 2.49 5.39l.29.11a4.28 4.28 0 0 0 2.46.07 4.39 4.39 0 0 0 1.55-.75l9.18 11.12a3.14 3.14 0 1 0 5.15 1.51ZM374.48 230.18a2.85 2.85 0 0 0-1.33 0l-2.15-7.05a4.52 4.52 0 0 0 3-3.26 4.44 4.44 0 0 0 .06-1.81l-.06-.29a4.53 4.53 0 0 0-2.14-2.85l1.63-3a1 1 0 0 0 .24.09 1.56 1.56 0 1 0-.49-.22l-1.63 3a4.54 4.54 0 0 0-4 0l-.25.14a4.61 4.61 0 0 0-1.67 1.75l-7.47-3.68a3.86 3.86 0 0 0 .21-.6 3.44 3.44 0 0 0-5.91-3.07l-.09.12a3.4 3.4 0 0 0-.26 4l.08.12a3.39 3.39 0 0 0 2.05 1.43 3.44 3.44 0 0 0 3.79-1.68l7.46 3.68a3.86 3.86 0 0 0-.28.83 4.53 4.53 0 0 0 .53 3.38l.16.23a4.52 4.52 0 0 0 2.66 1.82 4.58 4.58 0 0 0 2.15 0l2.11 7.07a2.85 2.85 0 0 0 .29 5.47 2.86 2.86 0 1 0 1.31-5.56Zm43.4-33.13a2.2 2.2 0 0 0 .95-1.28l11.08 2.2a3.79 3.79 0 0 0 .39 2.43l-1.71.91a1.17 1.17 0 1 0-.38 1.61 1.15 1.15 0 0 0 .44-1.49l1.7-.92.08.15a3.86 3.86 0 0 0 2.95 1.82h.24a3.89 3.89 0 0 0 2.15-.58 1.66 1.66 0 0 0 .34-.25l4.82 5.79a2.19 2.19 0 1 0 .35-.27l-.16.11-4.82-5.77a4 4 0 0 0 1.24-2.22v-.24a3.85 3.85 0 0 0-3.26-4.27l1-8a1.91 1.91 0 0 0 1.15-.28 2 2 0 1 0-2.06-3.34 2 2 0 0 0 .67 3.6l-1 8a4 4 0 0 0-2.4.56 3.8 3.8 0 0 0-1.73 2.43l-11.08-2.21a2.11 2.11 0 0 0-.3-1.42 2.14 2.14 0 1 0-.7 2.94Zm-85-139.26a4.16 4.16 0 0 0 .45 3l-18 12.06a7.51 7.51 0 0 0-3.82-2.78l1.06-3.54a2.45 2.45 0 1 0-.24-.09L311.25 70c-.1 0-.2-.08-.3-.1a7.42 7.42 0 0 0-6.49 1.55l-.35.3a7.44 7.44 0 0 0-2.11 3.73 5.79 5.79 0 0 0-.13.8L287.45 75a4.26 4.26 0 1 0-.12.83c0-.13.05-.25.07-.36l14.39 1.3a7.52 7.52 0 0 0 1.33 4.69l.27.39a7.43 7.43 0 0 0 10.23 1.37l9.51 12.25a3.88 3.88 0 1 0 .37-.28L314 82.92a7.54 7.54 0 0 0 2.5-4 7.41 7.41 0 0 0-.95-5.65l18-12.05a4.12 4.12 0 1 0-.71-3.42Z" class="cls-24"/><path d="M293.32 169.68a4.38 4.38 0 0 0 5.37-3.05 4.12 4.12 0 0 0 .07-2l10.89-2.78a6.89 6.89 0 0 0 7.55 5l3.21 19.15a4.39 4.39 0 1 0 2.11 0 4.18 4.18 0 0 0-1.68-.12l-3.21-19.23a6.85 6.85 0 0 0 4.47-3.09l4.49 2.66a2.35 2.35 0 1 0 4.38 1.63 2.35 2.35 0 0 0-1.64-2.89 2.32 2.32 0 0 0-2.52.89l-4.5-2.67a6.43 6.43 0 0 0 .59-1.43 6.81 6.81 0 0 0-.4-4.74l24.63-12a3.7 3.7 0 0 0 .21.33 4.17 4.17 0 0 0 2.92 1.66l-1.7 17.18a2.77 2.77 0 0 0-1.79.55 2.75 2.75 0 0 0 2.39 4.84h.12a3.42 3.42 0 0 0 .78-.41 2.74 2.74 0 0 0-1.25-4.92l1.7-17.18a4.21 4.21 0 0 0 2.66-.8l14.32 19.18a2.82 2.82 0 1 0 4.58 1.9v-.12a3 3 0 0 0-.53-1.3 2.83 2.83 0 0 0-3.84-.63l-14.31-19.18a4.22 4.22 0 0 0 1.51-2.79v-.13a4 4 0 0 0-.26-1.8L394 122.32a7.92 7.92 0 0 0 2.39 2.85L381.4 147a2.94 2.94 0 0 0-.72-.3 3 3 0 1 0 1.09.55l14.93-21.85a8 8 0 0 0 2.15 1 7.91 7.91 0 0 0 3.61.13l8.33 38a4.78 4.78 0 0 0-3.42 3.39 4.84 4.84 0 0 0 1 4.5l-13.65 12.49a2.93 2.93 0 0 0-3.44-.55l-3.28-5.93a2.09 2.09 0 1 0-1.69.26 2.22 2.22 0 0 0 1.51-.15l3.34 5.92a2.9 2.9 0 0 0-1.29 1.7 3.06 3.06 0 0 0-.09 1.16v.21a2.93 2.93 0 0 0 5.7.21 2.9 2.9 0 0 0-.59-2.69l13.65-12.49a4.77 4.77 0 0 0 2.21 1.32 4.86 4.86 0 0 0 2.6-9.36 4.68 4.68 0 0 0-2.13-.11l-8.33-38a7.77 7.77 0 0 0 5.59-5.47l38.35 10.65a7.21 7.21 0 0 0 2.07 7.22l-7.9 9.53a4.71 4.71 0 0 0-1.69-.84 5 5 0 1 0 2 1.12l7.93-9.49a7.23 7.23 0 0 0 2.63 1.36 7.15 7.15 0 0 0 5.8-.9l22.86 33.54a7 7 0 0 0-1.67 9.48l-11.76 8.44a3.59 3.59 0 0 0-1.79-1.16 3.52 3.52 0 1 0 2 1.52l11.78-8.41a6.93 6.93 0 0 0 9 1.81l.36-.22a7 7 0 0 0 2.72-3.47l3.27 1.12a2.26 2.26 0 1 0 .09-.22l-3.29-1.13c0-.1.08-.19.11-.29a7 7 0 0 0-1.2-6.11l-.29-.34a6.88 6.88 0 0 0-3.36-2.1 4.79 4.79 0 0 0-.75-.17l1.75-13.39a4 4 0 1 0-.76-.14l.33.08-1.74 13.4a6.91 6.91 0 0 0-4.42 1.06L458 139.35a7.18 7.18 0 0 0 1.9-9.57l25-15.64a4.63 4.63 0 0 0 2.62 1.84 4.68 4.68 0 0 0 4.06-8.27l-.17-.13a4.68 4.68 0 0 0-7.17 2.61 4.68 4.68 0 0 0 .44 3.57l-25.06 15.66a7.16 7.16 0 0 0-3.86-2.79l11-39.42a4.82 4.82 0 1 0-2.2-8.19l-7.32-7.43a2 2 0 0 0 .48-.85 2.11 2.11 0 0 0-1.46-2.6 2.14 2.14 0 0 0-2.6 1.47 2.11 2.11 0 0 0 1.47 2.59 2 2 0 0 0 2-.46l7.3 7.42a4.81 4.81 0 0 0 1.95 7.93l-11 39.44a7.17 7.17 0 0 0-5.37.86l-2.41-3.83a2.08 2.08 0 0 0-.65-3.73 2.11 2.11 0 1 0 .47 3.86l2.4 3.82a7.19 7.19 0 0 0-2.87 3.67l-38.39-10.66a7.8 7.8 0 0 0-2.45-7.48l7.11-8.41a5.72 5.72 0 0 0 8.44-7.42l13-8.07a2 2 0 0 0 1.1.79 2 2 0 1 0-1.39-2.48 1.92 1.92 0 0 0 .17 1.51l-13 8.07a5.62 5.62 0 0 0-3.26-2.41 5.68 5.68 0 0 0-4.72.76l-5.38-7.69a2 2 0 0 0 .67-1 1.94 1.94 0 1 0-2.36 1.31 1.9 1.9 0 0 0 1.53-.23l5.38 7.7a5.7 5.7 0 0 0-.49 8.84l-7.11 8.39a7.82 7.82 0 0 0-10.39.64l-25.68-23.47a4.22 4.22 0 0 0 .85-1.61 4.33 4.33 0 1 0-1.13 1.93l25.67 23.5a7.78 7.78 0 0 0-1.35 8.23L354.47 141a3.68 3.68 0 0 0-.23-.44l-.15-.22a4.23 4.23 0 0 0-4.08-1.62l-1.57-7.05a2.93 2.93 0 0 0 1-.48 2.91 2.91 0 1 0-1.23.53l1.56 7a4.32 4.32 0 0 0-1.57.73 4.21 4.21 0 0 0-1.66 3v.25a4.33 4.33 0 0 0 .42 1.92l-24.6 12a6.89 6.89 0 0 0-2.59-2.66l6.07-11.15a4.89 4.89 0 0 0 .9.34 5.22 5.22 0 0 0 5-8.8L346 118.94a1.82 1.82 0 0 0 .74.39 2 2 0 1 0-.91-.54l-14.24 15.46a5.26 5.26 0 0 0-6-.63l-5.94-10a2.72 2.72 0 1 0-2.21.34 2.68 2.68 0 0 0 2-.23l5.94 10a5.21 5.21 0 0 0 .06 8.9l-6.07 11.16a5.4 5.4 0 0 0-1.24-.47 6.79 6.79 0 0 0-5.17.61l-.37.22a6.85 6.85 0 0 0-3 7.24l-10.89 2.78a4.36 4.36 0 1 0-5.34 5.5Z" class="cls-24"/><path d="M387.31 61.82a1.49 1.49 0 1 0 2.58 1.51 1.56 1.56 0 0 1 .06-.15l2.81 1.11a3.07 3.07 0 0 0 1.32 3.7 3 3 0 0 0 2.45.28l2 5.82a1.94 1.94 0 0 0-1 .87 2.06 2.06 0 1 0 1.17-.91l-1.94-5.82a3 3 0 0 0 1.6-1.34 3.08 3.08 0 0 0-.39-3.64l11.82-12.06a5.92 5.92 0 0 0 5.69 1.4l.27-.09a5.94 5.94 0 0 0 2.83-2l2.57 1.92a.16.16 0 0 0-.06.08 2.23 2.23 0 1 0 .23-.32l-2.57-1.91c.11-.14.2-.28.29-.42a6 6 0 0 0 .75-3.94l18.45-3.27a3.39 3.39 0 1 0 .38-2.45 3.48 3.48 0 0 0-.43 2.17l-18.46 3.25a5.94 5.94 0 0 0-2.83-4 5.64 5.64 0 0 0-1.49-.61l3.07-12.85a4.5 4.5 0 1 0-1.38-.53 4.3 4.3 0 0 0 1.09.46L415 41a5.9 5.9 0 0 0-3 .15l-.28.09a6 6 0 0 0-3.11 2.57 5.85 5.85 0 0 0-.67 1.68l-.06.3A6 6 0 0 0 409.5 51l-11.82 12.05a3.64 3.64 0 0 0-.49-.36 3.08 3.08 0 0 0-4.2 1.1 3 3 0 0 0-.18.36l-2.8-1.1a1.49 1.49 0 0 0-2.7-1.23Zm-101.62 76.93a2 2 0 1 0-1-3.95c-.08 0-.13.06-.21.08l-1.63-3.78a4.2 4.2 0 0 0 2.28-4.86 4.1 4.1 0 0 0-2.09-2.63l3.73-7.5a2.83 2.83 0 0 0 1.85.16 2.78 2.78 0 1 0-3.39-2 2.84 2.84 0 0 0 1.37 1.74l-3.74 7.49a4.11 4.11 0 0 0-2.84-.26 4.22 4.22 0 0 0-3.14 3.9l-23.07.22a8.39 8.39 0 0 0-.25-1.78 8.25 8.25 0 0 0-3.89-5.06l-.35-.18a8.18 8.18 0 0 0-4.64-.82l-.64-4.32h.14a3.09 3.09 0 1 0-.53.08l.62 4.33a5.12 5.12 0 0 0-.68.14 8.09 8.09 0 0 0-4.52 3.07l-21-14.67a4.63 4.63 0 1 0-.23.33l21 14.68a8.15 8.15 0 0 0-1.1 6.56 8.37 8.37 0 0 0 .85 2l-15.38 9.45A6.12 6.12 0 1 0 224 143a6.23 6.23 0 0 0-.62-1.5l15.38-9.45a8.22 8.22 0 0 0 3.06 2.77l.36.18a8.09 8.09 0 0 0 5.48.51 8 8 0 0 0 2.28-1l.34-.23a8.23 8.23 0 0 0 3.5-6.57l23.07-.22a3.8 3.8 0 0 0 .13.81 4.18 4.18 0 0 0 5.11 3 4 4 0 0 0 .52-.18l1.65 3.77a2 2 0 0 0 1.41 3.8Z" class="cls-24"/></g><path d="M708.72 214a5.54 5.54 0 0 1-3.64-9l-32.45-29.07a3.59 3.59 0 0 1-2.93 1 3.54 3.54 0 0 1-1.81-.76l-14.67 16.11a5.51 5.51 0 0 1 1.6 4.58 5.57 5.57 0 0 1-4 4.7l5.86 25a3.7 3.7 0 0 1 1 0 3.59 3.59 0 1 1-1.47.14l-5.85-25a5.52 5.52 0 0 1-6.54-6.09 5.62 5.62 0 0 1 .46-1.64l-21.19-10.77a6.59 6.59 0 0 1-4.67 3.3l4.11 32.67a4.33 4.33 0 0 1 .72 0 4 4 0 0 1-.93 7.92 3.94 3.94 0 0 1-2.51-1.32l-10.27 7.63a2.34 2.34 0 1 1-1.67-1 2.41 2.41 0 0 1 1.54.84l10.25-7.62a4 4 0 0 1-.83-2.93 4 4 0 0 1 3.22-3.45L618 186.56a6.78 6.78 0 0 1-1.35 0 6.51 6.51 0 0 1-4.86-3.18l-9.2 5a4.4 4.4 0 0 1 .4 2.42 4.43 4.43 0 1 1-.62-2.84l9.19-5a6.53 6.53 0 0 1 2.56-8.53l-18-33.43a7.48 7.48 0 0 1-4.26.74 5.72 5.72 0 0 1-.81-.14l-3.75 14.2a4.29 4.29 0 1 1-.82-.18 2.08 2.08 0 0 1 .36.06l3.75-14.21a7.49 7.49 0 0 1-4-2.87l-36.77 24.35a7.79 7.79 0 0 1-2 10.41l18.76 26.06a5 5 0 0 1 3.38-.8 5.1 5.1 0 0 1 .68 10l6 25.42a2.12 2.12 0 0 1 .62 0 2.15 2.15 0 1 1-.86.08l-6-25.41a5.33 5.33 0 0 1-1.65.08 5.11 5.11 0 0 1-2.57-9.08l-18.78-26.1a7.77 7.77 0 0 1-5 1.22L537.25 219a5.25 5.25 0 1 1-5.6 7.35l-10.39 4.47a2.17 2.17 0 0 1 .13 1 2.29 2.29 0 1 1-.22-1.28l10.39-4.46a5.23 5.23 0 0 1 5.23-7.18l5.11-44.23a7.74 7.74 0 0 1-5-3.07l-4 2.86a2.32 2.32 0 0 1 .35 1.49 2.29 2.29 0 1 1-2-2.54 2.33 2.33 0 0 1 1.53.85l4-2.85a7.87 7.87 0 0 1-1.38-4.88l-43-5a8.46 8.46 0 0 1-5.54 6.52l3.69 11.38a6.35 6.35 0 0 1 2.43-.19 6.21 6.21 0 0 1 3 11.13l9.78 13.48a2.22 2.22 0 0 1 1.44-.35 2.19 2.19 0 1 1-1.64.48l-9.77-13.47a6.18 6.18 0 0 1-8.71-1.63l-8.57 5.53a2.1 2.1 0 0 1-2.07 3.12 2.1 2.1 0 1 1 .49-4.17 2.07 2.07 0 0 1 1.45.86l8.57-5.53a6.23 6.23 0 0 1 3.15-9.11l-3.7-11.37a8.5 8.5 0 0 1-10.19-4.91l-.16-.44a8.63 8.63 0 0 1-.43-3.8 8.47 8.47 0 0 1 2.46-5l-57.6-64.32a7.4 7.4 0 0 1-3.68 1.61l1.51 13.72a6.28 6.28 0 0 1 1.06 0 5.68 5.68 0 0 1 1.42 10.93l8 21.41a2.35 2.35 0 0 1 .92-.09 2.24 2.24 0 1 1-1.14.18l-8-21.42a5.75 5.75 0 0 1-2.53.28 5.7 5.7 0 0 1-3.79-2.12l-10.1 7.65a3 3 0 0 1-2.77 4.63 3 3 0 1 1 2.63-4.82l10.1-7.66a5.57 5.57 0 0 1-1-4 5.68 5.68 0 0 1 4.77-4.95l-1.55-13.69a7.72 7.72 0 0 1-1.44 0 7.46 7.46 0 0 1-4.95-2.75L360.27 125a9.52 9.52 0 0 1 1.69 5.27h5.14a.92.92 0 0 1 0-.16 3.61 3.61 0 1 1 0 .64h-5.14v.82a9.61 9.61 0 0 1-2.85 5.76l20.44 22.05a5.46 5.46 0 1 1-1.89 3.52 5.42 5.42 0 0 1 1.55-3.19l-20.51-22.1a9.5 9.5 0 0 1-7.45 2.33 8.83 8.83 0 0 1-2.52-.66l-8.51 19.43a7.22 7.22 0 1 1-2.27-.66 6.58 6.58 0 0 1 1.83.48l8.52-19.43a9.61 9.61 0 0 1-5.45-9.81 9.35 9.35 0 0 1 .77-2.81l.22-.42a9.56 9.56 0 0 1 7.07-5.13L347.47 94a4.51 4.51 0 0 1-1 0 4.91 4.91 0 0 1-4.31-5.47 4.52 4.52 0 0 1 .12-.64l-4.64-1.3a2.4 2.4 0 0 1-4.65-1 2.4 2.4 0 1 1 4.76.57l-.06.25 4.66 1.3a4.91 4.91 0 0 1 8.69-1.43l8.13-5.57a3.25 3.25 0 0 1 3.13-5 3.27 3.27 0 0 1-.76 6.49 3.3 3.3 0 0 1-2.24-1.31l-8.12 5.56a4.93 4.93 0 0 1-3.24 7.55l3.44 26.9a9.4 9.4 0 0 1 2.12 0 9.61 9.61 0 0 1 6.5 3.7l49.65-36.32a7.43 7.43 0 0 1-1.31-5.17 7.51 7.51 0 0 1 1.25-3.35l-9.8-7.28a4.74 4.74 0 1 1 1-2.46 4.8 4.8 0 0 1-.77 2.08l9.81 7.28a7.47 7.47 0 0 1 9.63-1.88l11.12-18a4.78 4.78 0 1 1 2.15.81 4.86 4.86 0 0 1-1.75-.56l-11.12 18a7.49 7.49 0 0 1 3.21 5l5.61-.83a2.16 2.16 0 0 1 0-.44 2.56 2.56 0 1 1 .06.91l-5.61.83a7.26 7.26 0 0 1 0 1.68 7.48 7.48 0 0 1-2.35 4.61l57.56 64.32a8.46 8.46 0 0 1 3.58-1.88l-6-28.15a4 4 0 0 1-.85 0 3.3 3.3 0 1 1 1.31-.11l6 28.14a8.23 8.23 0 0 1 2.58-.09 8.45 8.45 0 0 1 3.67 1.34l24-34.8a5.28 5.28 0 0 1 .82-8.93l-8.53-18.25a3.3 3.3 0 0 1-1.63.24 3.17 3.17 0 0 1-2.05-1.11l-5.8 4.59a2.27 2.27 0 0 1 .42 1.58 2.29 2.29 0 1 1-2-2.54 2.28 2.28 0 0 1 1.45.77l5.79-4.58a3.19 3.19 0 0 1-.2-3.45l-20.2-12.37a2 2 0 0 1-1.92.88 2.05 2.05 0 1 1 2.28-1.8 1.89 1.89 0 0 1-.23.73L501 86.4a3.19 3.19 0 1 1 4.13 4.6l8.58 18.18a5.28 5.28 0 1 1-.66 9.3l-24 34.8a8.49 8.49 0 0 1 3.37 7.81l42.93 5a7.83 7.83 0 0 1 5-6.43l-4.06-12.81a6 6 0 0 1-2 .15 5.41 5.41 0 1 1 2.49-.3l4 12.81a7.93 7.93 0 0 1 3.2-.29 7.8 7.8 0 0 1 5.48 3.28l36.77-24.35a7.52 7.52 0 0 1 2.3-10.15l-8.36-13.33a3.74 3.74 0 0 1-2.27.44 3.82 3.82 0 1 1 2.67-.69l8.36 13.33a7.5 7.5 0 0 1 9.75 1.85l17.76-13a4.19 4.19 0 1 1 .28.38l-17.76 13a7.59 7.59 0 0 1 1.32 4.6l3.75.22a2.35 2.35 0 1 1 0 .25l-3.75-.21v.32a7.58 7.58 0 0 1-3.72 5.67l18 33.43a6.45 6.45 0 0 1 6.08.16l11.26-18.45a4.71 4.71 0 1 1 2.11.79 4.6 4.6 0 0 1-1.7-.55L621 174.61a6.5 6.5 0 0 1 2.32 8.17l21.18 10.71a5.51 5.51 0 0 1 5.5-2.79 5.41 5.41 0 0 1 2.91 1.25l14.67-16.1a3.59 3.59 0 1 1 6.14-2.07 3.57 3.57 0 0 1-.74 1.79l32.46 29.06a5.54 5.54 0 1 1 3.32 9.38Zm-388.97-83.9a2.57 2.57 0 0 0-1.51 1.26l-4.46-1.82a7.18 7.18 0 0 0-5.75-9.78l-.46-.05a7.3 7.3 0 0 0-2.64.31 7.2 7.2 0 0 0-4.72 9 8 8 0 0 0 .35.9l-41.92 19.23a5.21 5.21 0 1 0 .34.82 3.39 3.39 0 0 0-.15-.41l41.94-19.23a7.18 7.18 0 0 0 12.81-.39l4.49 1.83a2.59 2.59 0 0 0 0 1.51 2.55 2.55 0 1 0 1.67-3.2Z" class="cls-24"/><path d="M441.1 186.74a4.46 4.46 0 0 0-.58-.28 6.4 6.4 0 0 0-5.64.39l-3.34-5.08a2.19 2.19 0 1 0-3.47-1 2.18 2.18 0 0 0 2.76 1.41l.32-.14 3.32 5.06a6.5 6.5 0 0 0-2.39 2.94 6.71 6.71 0 0 0-.45 2.94l-17.39 1.91a3.08 3.08 0 1 0-.17 1.71 3.19 3.19 0 0 0 .21-1.28l17.4-1.92a6.46 6.46 0 0 0 4 5.09 6.37 6.37 0 0 0 2.4.47l.22 8.83a4.54 4.54 0 1 0 2.05.32 4.64 4.64 0 0 0-1.62-.33l-.23-8.83a6.48 6.48 0 0 0 3-12ZM369.15 47.51a3.69 3.69 0 0 0-.38-3.49l10.37-8.21a3.88 3.88 0 0 0 1.46 1 4.07 4.07 0 0 0 3 0l.47-.24a4 4 0 0 0 1-6.2l-.39-.37a3.87 3.87 0 0 0-1.1-.69 4 4 0 0 0-4.34.85l-10.87-9.85a4 4 0 0 0-1.63-6.25 4 4 0 1 0 1.29 6.65L379 30.6a4.25 4.25 0 0 0-.59 1 4 4 0 0 0 .42 3.82l-10.36 8.21a3.76 3.76 0 0 0-1.33-.95 3.71 3.71 0 1 0 2 4.84Zm14.69 158.74a4.66 4.66 0 0 0-4.57.59l-8.1-9.85a6.48 6.48 0 0 0 1.77-7.18l-.18-.43a6.5 6.5 0 0 0-11.05-1.25l-.28.38a6.73 6.73 0 0 0-.61 1.16 6.49 6.49 0 0 0 .87 6.42l.3.35a6.49 6.49 0 0 0 8.81.85l8.1 9.85a4.76 4.76 0 0 0-1.2 1.7 4.67 4.67 0 0 0 1.06 5.11l-19.16 21.37a5 5 0 0 0-1.18-.72 4.72 4.72 0 1 0 1.54 1l19.16-21.37a4.39 4.39 0 0 0 1.18.72 4.71 4.71 0 0 0 3.54-8.72ZM287.23 80.48a5.44 5.44 0 0 0 8.12 0l13.06 10.7a4.8 4.8 0 0 0-.49.85 4.07 4.07 0 1 0 7.52 0l-.21-.42a4 4 0 0 0-6.52-.79l-13-10.71a6 6 0 0 0 .69-1.22 5.46 5.46 0 1 0-9.42 1.25Zm-33.47 77.95a6.83 6.83 0 1 1 7-6.61 6.84 6.84 0 0 1-7 6.61Zm0-.3a6.53 6.53 0 1 0-6.32-6.74 6.53 6.53 0 0 0 6.33 6.74Z" class="cls-24"/><path d="M291.05 84.32a7.5 7.5 0 1 1 7.74-7.26 7.52 7.52 0 0 1-7.74 7.26Zm0-.34a7.16 7.16 0 1 0-6.93-7.39 7.17 7.17 0 0 0 6.95 7.41Zm96.52-50.7a5.41 5.41 0 1 1-5.23-5.58 5.41 5.41 0 0 1 5.23 5.58Zm-.27 0a5.14 5.14 0 1 0-5.3 5 5.15 5.15 0 0 0 5.3-5Zm8.61 42.51a6.31 6.31 0 1 1 6.52-6.11 6.31 6.31 0 0 1-6.52 6.11Zm0-.27a6 6 0 1 0-5.84-6.23 6 6 0 0 0 5.85 6.23Zm107.6 17.06a4.43 4.43 0 1 1 4.57-4.28 4.43 4.43 0 0 1-4.57 4.28Zm0-.17A4.26 4.26 0 1 0 499.4 88a4.27 4.27 0 0 0 4.12 4.41Zm-156.64 3.08a6.39 6.39 0 1 1 6.59-6.18 6.4 6.4 0 0 1-6.59 6.18Zm0-.22a6.17 6.17 0 1 0-6-6.36 6.17 6.17 0 0 0 6.01 6.36Zm35.91 74.98a6.76 6.76 0 1 1 7-6.55 6.77 6.77 0 0 1-7 6.55Zm0-.27a6.49 6.49 0 1 0-6.28-6.7 6.51 6.51 0 0 0 6.29 6.72ZM377.42 215a6.38 6.38 0 1 1 9 .29 6.39 6.39 0 0 1-9-.29Zm.2-.19a6.11 6.11 0 1 0 .28-8.63 6.12 6.12 0 0 0-.28 8.58Zm60.76-30.56a8.28 8.28 0 1 1-8.54 8 8.27 8.27 0 0 1 8.54-8Zm0 .27a8 8 0 1 0 7.74 8.26 8 8 0 0 0-7.74-8.26Zm45.31-13.83a10.55 10.55 0 1 1 10.88-10.2 10.56 10.56 0 0 1-10.88 10.2Zm0-.27a10.28 10.28 0 1 0-9.95-10.6 10.28 10.28 0 0 0 9.96 10.6Zm108.72-26.64a9.63 9.63 0 1 1 9.94-9.32 9.65 9.65 0 0 1-9.94 9.32Zm0-.27a9.37 9.37 0 1 0-9.06-9.66 9.37 9.37 0 0 0 9.07 9.66Zm-23.28 66.72a6.55 6.55 0 1 1 6.75-6.34 6.57 6.57 0 0 1-6.75 6.34Zm0-.17a6.38 6.38 0 1 0-6.18-6.58 6.38 6.38 0 0 0 6.19 6.58Zm53.49 18.42a5.32 5.32 0 1 1 5.49-5.14 5.32 5.32 0 0 1-5.49 5.14Zm0-.17a5.15 5.15 0 1 0-5-5.31 5.16 5.16 0 0 0 5 5.31ZM670 178.75a5.42 5.42 0 1 1 5.59-5.24 5.44 5.44 0 0 1-5.59 5.24Zm0-.23a5.19 5.19 0 1 0-5-5.35 5.21 5.21 0 0 0 5 5.35Zm-268.41-50.76a4.19 4.19 0 1 1 4.32-4.05 4.18 4.18 0 0 1-4.32 4.05Zm0-.17a4 4 0 1 0-3.89-4.15 4 4 0 0 0 3.89 4.15Z" class="cls-24"/></g></g></g></svg>